# xmcd
#
# Track frame offsets: 
#        150
#        12744
#        23267
#        40207
#        50584
#        62432
#        75526
#        88868
#        101787
#        114790
#        126907
#        141868
#        154644
#        166159
#        179668
#        192870
#        209747
#        222850
#        235507
#        245949
#        257872
#        272130
#        287835
#        300181
#        313020
#
# Disc length: 4328 seconds
#
# Revision: 9
# Processed by: cddbd v1.5.2PL0 Copyright (c) Steve Scherf et al.
# Submitted via: ExactAudioCopy v1.0b3
#
DISCID=6310e619
DTITLE=25 Original Soul Classics (Various) - In The Midnight Hour 
DYEAR=1997
DGENRE=Soul
TTITLE0=James Brown -  I Got You
TTITLE1=Arthur Conley - Sweet Soul Music
TTITLE2=Curtis Mayfield - Move On Up
TTITLE3=Aretha Franklin - Think
TTITLE4=Wilson Pickett - In The Midnight Hour
TTITLE5=Otis Redding - My Girl
TTITLE6=Al Green - Sha La La (Make Me Happy)
TTITLE7=Mary Wells - My Guy
TTITLE8=Fontella Bass - Rescue Me
TTITLE9=Judy Clay and William Bell - Private Number
TTITLE10=Booker T and The MG's - Time Is Tight
TTITLE11=Bob and Earl - Harlem Shuffle
TTITLE12=Mel and Tim - Backfield In Motion
TTITLE13=Smokey Robinson - Tears Of A Clown
TTITLE14=Jackie Wilson - (Your Love Keeps Lifting Me) Higher And Highe
TTITLE14=r
TTITLE15=The Temptations - Just My Imagination
TTITLE16=Freda Payne - Band Of Gold
TTITLE17=The Impressions - It's All Right
TTITLE18=Edwin Starr - Stop Her On Sight (S.O.S.)
TTITLE19=Martha Reeves and The Vandellas - Dancing In The Street
TTITLE20=Ray Charles - What'd I Say (Part 1)
TTITLE21=Staple Singers - Respect Yourself
TTITLE22=Ann Peebles - I'm Gonna Tear Your Playhouse Down
TTITLE23=The Isley Brothers - This Old Heart Of Mine (Is Week For You)
TTITLE24=Maxine Brown - Oh No Not My Baby
EXTD=YEAR: 1997
EXTT0=
EXTT1=
EXTT2=
EXTT3=
EXTT4=
EXTT5=
EXTT6=
EXTT7=
EXTT8=
EXTT9=
EXTT10=
EXTT11=
EXTT12=
EXTT13=
EXTT14=
EXTT15=
EXTT16=
EXTT17=
EXTT18=
EXTT19=
EXTT20=
EXTT21=
EXTT22=
EXTT23=
EXTT24=
PLAYORDER=
